<svg width="35" height="35" viewBox="0 0 35 35" fill="none" xmlns="http://www.w3.org/2000/svg">
<path d="M17.5 35C27.165 35 35 27.165 35 17.5C35 7.83502 27.165 0 17.5 0C7.83502 0 0 7.83502 0 17.5C0 27.165 7.83502 35 17.5 35Z" fill="#F2F2F2"/>
<path d="M17.4263 19.5341C13.9945 19.5341 11.1992 16.7389 11.1992 13.3071C11.1992 9.87535 13.9945 7.08008 17.4263 7.08008C20.858 7.08008 23.6533 9.87535 23.6533 13.3071C23.6533 16.7389 20.858 19.5341 17.4263 19.5341ZM17.4263 8.03152C14.5129 8.03152 12.1441 10.4003 12.1441 13.3137C12.1441 16.2271 14.5129 18.5958 17.4263 18.5958C20.3396 18.5958 22.7084 16.2271 22.7084 13.3137C22.7084 10.4003 20.3396 8.03152 17.4263 8.03152Z" fill="black"/>
<path d="M10.7285 27.1194L17.907 11.5879L25.2954 26.9947L10.7285 27.1194ZM17.9201 13.8057L12.2115 26.1614L23.7994 26.063L17.9201 13.8057Z" fill="black"/>
<path d="M18.3854 27.0932H10.7148V7.08008H18.3854V27.0932ZM11.6597 26.1483H17.4406V8.02496H11.6597V26.1483Z" fill="black"/>
</svg>
