<svg width="52" height="52" viewBox="0 0 52 52" fill="none" xmlns="http://www.w3.org/2000/svg">
<g clip-path="url(#clip0_908_62)">
<path d="M26 52C40.3594 52 52 40.3594 52 26C52 11.6406 40.3594 0 26 0C11.6406 0 0 11.6406 0 26C0 40.3594 11.6406 52 26 52Z" fill="#F4F4F4"/>
<path d="M42.6889 23.8698C42.6889 33.0887 35.2157 44.8203 25.9987 44.8203C16.7817 44.8203 9.30859 33.0868 9.30859 23.8698C9.30859 14.6528 16.7817 7.17969 25.9987 7.17969C35.2157 7.17969 42.6889 14.6528 42.6889 23.8698Z" fill="#1FFF28"/>
<path d="M16.0024 35.6608C21.0272 35.6608 25.1006 30.6097 25.1006 24.3787C25.1006 18.1477 21.0272 13.0966 16.0024 13.0966C10.9777 13.0966 6.9043 18.1477 6.9043 24.3787C6.9043 30.6097 10.9777 35.6608 16.0024 35.6608Z" fill="black"/>
<path d="M35.9966 35.3321C41.0213 35.3321 45.0947 30.2809 45.0947 24.05C45.0947 17.819 41.0213 12.7678 35.9966 12.7678C30.9718 12.7678 26.8984 17.819 26.8984 24.05C26.8984 30.2809 30.9718 35.3321 35.9966 35.3321Z" fill="black"/>
</g>
<defs>
<clipPath id="clip0_908_62">
<rect width="52" height="52" fill="white"/>
</clipPath>
</defs>
</svg>
