<svg width="33" height="33" viewBox="0 0 33 33" fill="none" xmlns="http://www.w3.org/2000/svg">
<path d="M21.7507 21.75L31.959 31.9583M13.0007 20.2917V5.70833M5.70898 13H20.2923M13.0007 24.6667C16.0948 24.6667 19.0623 23.4375 21.2502 21.2496C23.4382 19.0617 24.6673 16.0942 24.6673 13C24.6673 9.9058 23.4382 6.93834 21.2502 4.75042C19.0623 2.56249 16.0948 1.33333 13.0007 1.33333C9.90646 1.33333 6.939 2.56249 4.75107 4.75042C2.56315 6.93834 1.33398 9.9058 1.33398 13C1.33398 16.0942 2.56315 19.0617 4.75107 21.2496C6.939 23.4375 9.90646 24.6667 13.0007 24.6667Z" stroke="white" stroke-opacity="0.8"/>
</svg>
