<svg width="187" height="65" viewBox="0 0 187 65" fill="none" xmlns="http://www.w3.org/2000/svg">
<mask id="mask0_926_559" style="mask-type:luminance" maskUnits="userSpaceOnUse" x="0" y="0" width="187" height="65">
<path d="M180.983 0.0528971L0.851562 35.0556L6.57405 64.5047L186.705 29.5021L180.983 0.0528971Z" fill="white"/>
</mask>
<g mask="url(#mask0_926_559)">
<path d="M104.714 30.1376C104.904 31.1171 105.095 32.0967 105.285 33.0763C105.303 33.1696 105.371 33.2693 105.445 33.3194C105.656 33.4883 105.891 33.6201 106.114 33.7704C106.185 33.805 106.272 33.8365 106.35 33.8214C107.796 33.5404 109.226 33.2625 110.672 32.9815C110.75 32.9664 110.819 32.9046 110.872 32.8459C111.025 32.6386 111.16 32.4188 111.298 32.2145C111.388 32.1001 111.383 31.9882 111.359 31.8638C111.014 30.0913 110.654 28.3217 110.325 26.5462C110.241 26.1108 110.109 25.7653 109.684 25.5735C109.598 25.5419 109.52 25.4763 109.443 25.4106C109.329 25.3199 109.232 25.3225 109.108 25.3466C107.895 25.5823 106.698 25.815 105.485 26.0506C105.205 26.105 104.882 26.1032 104.667 26.2419C104.452 26.3805 104.332 26.678 104.185 26.9164C104.135 26.9907 104.109 27.1086 104.127 27.2019C104.318 28.1815 104.511 29.1766 104.702 30.1561M100.32 15.7432C100.508 15.884 100.713 16.0218 100.898 16.1471C101.27 16.3977 101.641 16.6482 102.012 16.8987C102.087 16.9489 102.158 17.0642 102.176 17.1575C102.445 18.5413 102.716 19.9407 102.985 21.3245L103.031 21.5577C103.031 21.5577 103.171 21.5305 103.233 21.5185C105.068 21.1619 106.908 20.8365 108.728 20.483C109.054 20.4196 109.302 20.452 109.565 20.6429C111.243 21.8015 112.93 22.9259 114.635 24.0629C114.746 24.138 114.796 24.2253 114.82 24.3497C115.297 26.8064 115.775 29.263 116.252 31.7197C116.27 31.813 116.248 31.9465 116.198 32.0208C115.007 33.7849 113.817 35.5491 112.627 37.3132C112.577 37.3875 112.462 37.4583 112.369 37.4764C109.368 38.0596 106.351 38.6457 103.35 39.2288C103.257 39.247 103.139 39.2215 103.049 39.1744C102.52 38.8577 102 38.507 101.486 38.1873C101.378 38.1277 101.328 38.0404 101.304 37.9161C100.017 31.2923 98.7329 24.6841 97.4458 18.0604C97.4216 17.936 97.4346 17.8367 97.5098 17.7253C97.8636 17.2209 98.1988 16.7039 98.5495 16.184C98.5871 16.1283 98.6092 16.0756 98.6312 16.0229L100.326 15.6935L100.32 15.7432Z" fill="black"/>
<path d="M8.39329 48.8706C8.58062 49.8347 8.76794 50.7987 8.95527 51.7627C8.97944 51.8871 9.02866 51.9743 9.13706 52.0339C9.35688 52.1687 9.56115 52.3065 9.76542 52.4443C9.87684 52.5195 9.96063 52.5355 10.085 52.5113C11.4999 52.2364 12.9304 51.9584 14.3454 51.6835C14.4853 51.6563 14.5695 51.5915 14.6447 51.4801C14.7669 51.2788 14.9047 51.0745 15.0456 50.8858C15.1207 50.7744 15.1367 50.6906 15.1125 50.5662C14.7923 48.9181 14.475 47.2855 14.1548 45.6373C14.0913 45.3108 14.1151 44.935 13.9363 44.6793C13.7576 44.4236 13.4073 44.2819 13.1288 44.094C13.0173 44.0188 12.9336 44.0029 12.8092 44.027C11.4098 44.2989 9.99486 44.5739 8.59548 44.8458C8.45554 44.873 8.37131 44.9378 8.29615 45.0492C8.1739 45.2505 8.02055 45.4577 7.8983 45.659C7.85121 45.7488 7.82571 45.8667 7.84384 45.96C8.03117 46.924 8.21849 47.8881 8.40582 48.8521M14.8738 32.3147C14.8738 32.3147 14.9541 32.3959 15.0098 32.4335C15.5112 32.7717 16.0126 33.1099 16.514 33.4482C16.644 33.5359 16.7087 33.6201 16.739 33.7756C17.7783 39.1243 18.8177 44.473 19.857 49.8218C20.1017 51.0812 20.3465 52.3407 20.5912 53.6001C20.6093 53.6934 20.5869 53.8269 20.5368 53.9011C20.189 54.4366 19.8382 54.9566 19.4719 55.4796C19.4218 55.5539 19.3221 55.6217 19.2288 55.6398C16.2279 56.2229 13.227 56.806 10.2261 57.3892C10.1328 57.4073 10.0149 57.3818 9.94061 57.3317C8.16091 56.1446 6.39675 54.9545 4.62958 53.7489C4.5553 53.6988 4.4875 53.599 4.46937 53.5057C3.98293 51.0024 3.49649 48.499 3.01005 45.9957C2.99192 45.9024 3.01742 45.7845 3.06752 45.7102C4.26064 43.9616 5.45375 42.213 6.63132 40.4674C6.70648 40.356 6.77818 40.3098 6.90257 40.2856C8.81505 39.914 10.7275 39.5424 12.64 39.1708L12.9043 39.1194L12.8621 38.9017C12.5901 37.5023 12.3182 36.103 12.0463 34.7036C12.013 34.5325 12.0355 34.3991 12.1357 34.2505C12.5146 33.709 12.8748 33.1549 13.2537 32.6133L14.8707 32.2991L14.8738 32.3147Z" fill="black"/>
<path d="M176.653 5.91243C176.789 7.19302 178.126 8.01423 179.342 7.79411C180.601 7.54938 181.339 6.1959 181.112 5.02975C180.861 3.73921 179.636 2.91241 178.392 3.15412C177.132 3.39885 176.317 4.76743 176.653 5.91243ZM181.993 5.24581C181.992 5.4881 182.006 5.72737 181.971 5.96016C181.656 7.90928 179.59 9.0691 177.705 8.3381C176.536 7.88748 175.879 6.99856 175.768 5.7616C175.654 4.50908 176.206 3.53047 177.275 2.88707C178.777 1.982 180.729 2.3934 181.631 3.96087C181.729 4.13537 181.799 4.33146 181.885 4.52453L182.024 5.23976L181.993 5.24581Z" fill="black"/>
<path d="M164.178 12.1287C164.801 11.1846 165.418 10.2903 166.004 9.40192C166.079 9.29049 166.15 9.24429 166.275 9.22012C168.203 8.84547 170.146 8.4678 172.074 8.09314C172.214 8.06595 172.301 8.09749 172.413 8.17265C174.18 9.37829 175.96 10.5654 177.739 11.7524C177.851 11.8276 177.9 11.9148 177.924 12.0392C178.607 15.5532 179.287 19.0517 179.97 22.5657C179.994 22.6901 179.981 22.7894 179.906 22.9008C179.555 23.4208 179.204 23.9407 178.838 24.4637C178.788 24.538 178.688 24.6058 178.595 24.6239C178.144 24.7116 177.693 24.7992 177.242 24.8868C177.164 24.9019 177.062 24.8734 176.99 24.8388C176.436 24.4785 175.898 24.1153 175.356 23.7364C175.282 23.6863 175.23 23.5835 175.212 23.4902C174.632 20.5049 174.054 17.5351 173.474 14.5497C173.447 14.4098 173.382 14.3256 173.271 14.2504C172.751 13.8996 172.231 13.5489 171.696 13.2011C171.624 13.1666 171.522 13.1381 171.444 13.1532C170.527 13.3314 169.594 13.5127 168.677 13.691C168.599 13.7061 168.499 13.7739 168.449 13.8482C168.083 14.3711 167.747 14.8881 167.381 15.4111C167.306 15.5225 167.28 15.6404 167.32 15.7618C167.9 18.7471 168.48 21.7324 169.06 24.7178C169.091 24.8733 169.062 24.9756 168.974 25.1056C168.633 25.5915 168.31 26.0898 167.969 26.5757C167.919 26.65 167.819 26.7177 167.726 26.7359C167.291 26.8205 166.84 26.9081 166.389 26.9957C166.311 27.0108 166.193 26.9853 166.122 26.9508C165.568 26.5905 165.029 26.2272 164.488 25.8484C164.413 25.7983 164.361 25.6955 164.343 25.6022C163.766 22.6324 163.186 19.647 162.609 16.6772C162.582 16.5373 162.529 16.4345 162.402 16.3624C161.886 16.0271 161.363 15.6608 160.846 15.3256C160.771 15.2755 160.669 15.247 160.576 15.2651C159.658 15.4434 158.725 15.6247 157.808 15.8029C157.73 15.818 157.646 15.8828 157.593 15.9415C157.227 16.4645 156.879 17 156.513 17.523C156.437 17.6344 156.424 17.7338 156.449 17.8582C157.026 20.8279 157.603 23.7977 158.18 26.7675C158.21 26.923 158.185 27.0409 158.097 27.1709C157.743 27.6753 157.408 28.1923 157.054 28.6967C157.004 28.771 156.904 28.8388 156.811 28.8569C156.376 28.9415 155.925 29.0291 155.474 29.1167C155.38 29.1349 155.262 29.1094 155.188 29.0592C154.653 28.7115 154.148 28.3577 153.613 28.01C153.501 27.9348 153.452 27.8476 153.428 27.7232C152.76 24.2869 152.096 20.8662 151.428 17.43C151.207 16.2949 150.99 15.1754 150.769 14.0404C150.745 13.916 150.758 13.8166 150.836 13.7208C151.199 13.1822 151.547 12.6467 151.895 12.1112C151.945 12.0369 152.045 11.9691 152.138 11.951C155.17 11.3618 158.208 10.8038 161.246 10.2457C161.324 10.2306 161.442 10.2561 161.516 10.3062C162.333 10.8574 163.153 11.4241 163.973 11.9909C164.029 12.0285 164.072 12.0846 164.131 12.1378" fill="black"/>
<path d="M76.0908 35.7157C75.9004 34.7361 75.7101 33.7566 75.5197 32.777C75.5046 32.6993 75.4368 32.5995 75.3626 32.5494C75.1553 32.396 74.9324 32.2457 74.7126 32.1109C74.6383 32.0608 74.5204 32.0353 74.4271 32.0535C72.9967 32.3314 71.5817 32.6064 70.1513 32.8843C70.0735 32.8994 69.9737 32.9672 69.9236 33.0415C69.7578 33.2674 69.623 33.4872 69.4726 33.71C69.4381 33.7813 69.4096 33.8837 69.4247 33.9614C69.8084 35.9361 70.1921 37.9108 70.5758 39.8854C70.5909 39.9632 70.6587 40.063 70.733 40.1131C70.9062 40.2569 71.1044 40.3636 71.2901 40.4889C71.4015 40.564 71.4853 40.58 71.6097 40.5559C72.7914 40.3262 73.9886 40.0936 75.1703 39.864C75.4658 39.8066 75.8229 39.8178 76.0506 39.6607C76.2782 39.5035 76.4074 39.1718 76.5858 38.9274C76.664 38.8315 76.6769 38.7321 76.6528 38.6078C76.4654 37.6437 76.2811 36.6953 76.0938 35.7313M81.453 37.9009C81.8911 40.1555 82.3261 42.3945 82.7642 44.649C82.7914 44.789 82.7815 44.9038 82.6938 45.0338C81.5162 46.7794 80.3231 48.528 79.1455 50.2736C79.0704 50.385 78.9987 50.4312 78.8743 50.4554C75.8423 51.0446 72.8103 51.6337 69.7783 52.2229C69.6695 52.2441 69.5702 52.2311 69.4773 52.1684C68.9729 51.8147 68.459 51.495 67.9546 51.1412C67.8803 51.0911 67.8155 51.0069 67.7974 50.9136C67.7098 50.4627 67.6191 49.9962 67.5315 49.5453C67.5164 49.4676 67.5449 49.3652 67.5795 49.2939C67.9272 48.7584 68.2935 48.2354 68.6568 47.6969C68.7164 47.5885 68.8067 47.5548 68.9155 47.5337C71.6366 47.005 74.3731 46.4732 77.0941 45.9444C77.2185 45.9203 77.3213 45.868 77.3809 45.7596C77.5002 45.5428 77.638 45.3386 77.7758 45.1343C77.8384 45.0414 77.8263 44.9792 77.7335 44.9166C77.5292 44.7788 77.3344 44.6069 77.1302 44.4691C77.0744 44.4315 76.9626 44.4371 76.8848 44.4522C75.1745 44.7846 73.4641 45.1169 71.7538 45.4493C71.6294 45.4734 71.5301 45.4605 71.4186 45.3853C69.67 44.1922 67.9089 43.0177 66.1633 41.8401C66.0519 41.7649 66.0057 41.6932 65.9815 41.5688C65.4981 39.0811 65.0177 36.6088 64.5343 34.121C64.5162 34.0277 64.5386 33.8943 64.5887 33.82C65.7788 32.0559 66.9689 30.2917 68.159 28.5275C68.2091 28.4533 68.3089 28.3855 68.4022 28.3673C70.3924 27.9806 72.3827 27.5939 74.3573 27.2102C74.4506 27.192 74.5685 27.2175 74.6428 27.2676C76.407 28.4577 78.1711 29.6478 79.9322 30.8224C80.0437 30.8975 80.0899 30.9692 80.114 31.0936C80.5521 33.3482 80.9933 35.6183 81.4314 37.8728" fill="black"/>
<path d="M31.2688 41.1178C30.9436 40.9389 30.6836 40.7635 30.3955 40.6098C30.3428 40.5877 30.2621 40.5873 30.1999 40.5994C28.7383 40.8834 27.2767 41.1674 25.8152 41.4514C25.7685 41.4605 25.6908 41.4756 25.6843 41.5252C25.4933 41.7882 25.321 42.0638 25.108 42.3795C25.3836 42.5518 25.6405 42.7117 25.913 42.8685C25.9687 42.906 26.0525 42.922 26.1147 42.9099C27.5763 42.6259 29.0534 42.3389 30.515 42.0549C30.5772 42.0428 30.6489 41.9966 30.6739 41.9595C30.8649 41.6965 31.0528 41.4179 31.2718 41.1333M26.3693 48.621C26.6077 48.7683 26.8676 48.9436 27.1401 49.1005C27.1959 49.138 27.3077 49.1324 27.3855 49.1173C29.2513 48.7548 31.1327 48.3892 32.9985 48.0266C33.8692 47.8574 34.7244 47.6912 35.5951 47.522C35.6884 47.5039 35.8063 47.5294 35.8806 47.5795C36.4317 47.9242 36.9732 48.3031 37.5243 48.6478C37.6357 48.723 37.6819 48.7947 37.7061 48.9191C37.7877 49.3389 37.8662 49.7431 37.9478 50.1629C37.9629 50.2407 37.9344 50.343 37.8998 50.4143C37.5396 50.9684 37.1763 51.5069 36.7944 52.0329C36.7413 52.0916 36.657 52.1564 36.5793 52.1715C33.5473 52.7607 30.5153 53.3499 27.4833 53.939C27.4056 53.9541 27.3032 53.9256 27.232 53.8911C25.4523 52.704 23.6696 51.5014 21.8868 50.2988C21.8126 50.2486 21.7633 50.1614 21.7482 50.0837C21.2648 47.5959 20.7844 45.1236 20.301 42.6358C20.2859 42.5581 20.3144 42.4557 20.349 42.3845C21.539 40.6203 22.7447 38.8532 23.9348 37.089C23.9849 37.0147 24.0847 36.9469 24.1779 36.9288C26.1466 36.514 28.1338 36.1117 30.1055 35.7124C30.1832 35.6973 30.27 35.7289 30.3413 35.7634C32.1426 36.9786 33.9594 38.1907 35.7607 39.4059C35.8164 39.4434 35.8812 39.5277 35.8963 39.6054C36.1833 41.0825 36.4703 42.5597 36.7574 44.0368C36.7725 44.1145 36.7595 44.2139 36.7064 44.2726C36.3461 44.8267 35.9828 45.3652 35.604 45.9067C35.5539 45.981 35.4355 46.0363 35.3578 46.0514C32.6212 46.5832 29.8847 47.1149 27.1481 47.6467C27.0237 47.6709 26.9365 47.7201 26.8768 47.8285C26.7326 48.0824 26.5697 48.3238 26.4034 48.6305" fill="black"/>
<path d="M42.4261 38.998C42.7573 39.2079 43.0329 39.3803 43.3239 39.5496C43.3952 39.5842 43.4945 39.5972 43.5878 39.579C46.2933 39.0533 48.9988 38.5276 51.6887 38.0049C51.8442 37.9747 51.9465 38.0032 52.0765 38.0909C52.5809 38.4447 53.0979 38.7799 53.6023 39.1337C53.6766 39.1838 53.7474 39.2991 53.7655 39.3924C54.0465 40.8384 54.3305 42.3 54.6115 43.746C54.6296 43.8393 54.6071 43.9728 54.557 44.0471C53.3669 45.8112 52.1768 47.5754 50.9867 49.3395C50.9366 49.4138 50.8213 49.4846 50.728 49.5027C47.7427 50.0828 44.7418 50.666 41.7565 51.2461C41.6321 51.2702 41.5327 51.2573 41.4369 51.1791C40.9139 50.8128 40.3784 50.465 39.8398 50.1017C39.7811 50.0486 39.7163 49.9644 39.7012 49.8866C39.6166 49.4513 39.532 49.0159 39.4444 48.565C39.4293 48.4873 39.4423 48.3879 39.4954 48.3292C39.8587 47.7907 40.222 47.2521 40.5853 46.7136C40.6604 46.6022 40.7507 46.5685 40.8595 46.5474C43.5806 46.0186 46.286 45.4929 49.007 44.9642C49.1625 44.9339 49.2623 44.8661 49.3344 44.7392C49.4848 44.5163 49.6351 44.2935 49.801 44.0676C49.5039 43.8672 49.2253 43.6793 48.9468 43.4914C48.9096 43.4663 48.8474 43.4784 48.7852 43.4905C46.0271 43.9942 43.2719 44.5134 40.5012 45.0357C40.3769 45.0598 40.2775 45.0469 40.1631 44.9562C39.6772 44.6149 39.1633 44.2952 38.6775 43.954C38.6032 43.9039 38.5354 43.8041 38.5173 43.7108C38.2302 42.2337 37.9432 40.7566 37.6562 39.2794C37.6381 39.1861 37.6636 39.0682 37.7137 38.994C38.8912 37.2484 40.0688 35.5028 41.2494 33.7728C41.2995 33.6985 41.4148 33.6277 41.5051 33.594C44.5185 32.9923 47.5319 32.3906 50.5609 31.7859C50.6542 31.7677 50.7721 31.7932 50.8464 31.8434C51.3819 32.1911 51.9204 32.5544 52.4434 32.9207C52.5177 32.9708 52.5669 33.0581 52.582 33.1358C52.6666 33.5712 52.7542 34.0221 52.8418 34.473C52.8569 34.5507 52.8284 34.6531 52.7939 34.7243C52.4461 35.2598 52.0768 35.7673 51.729 36.3028C51.6539 36.4142 51.5822 36.4604 51.4578 36.4846C48.7368 37.0133 46.0002 37.5451 43.2792 38.0738C43.1548 38.098 43.0676 38.1472 42.9924 38.2587C42.8326 38.5156 42.6511 38.7445 42.4602 39.0075" fill="black"/>
<path d="M122.073 26.7967C122.26 27.7607 122.445 28.7092 122.632 29.6732C122.662 29.8287 122.717 29.9471 122.863 30.0317C123.064 30.154 123.253 30.2948 123.47 30.414C123.544 30.4641 123.662 30.4896 123.755 30.4715C124.953 30.2389 126.15 30.0062 127.331 29.7766C127.627 29.7192 127.984 29.7304 128.212 29.5733C128.439 29.4161 128.572 29.1 128.728 28.8274C128.778 28.7532 128.804 28.6353 128.786 28.542C128.408 26.5984 128.027 24.6393 127.65 22.6957C127.635 22.6179 127.567 22.5182 127.508 22.465C127.264 22.2866 127.022 22.1238 126.765 21.9639C126.694 21.9294 126.607 21.8978 126.53 21.9129C125.084 22.1939 123.653 22.4719 122.207 22.7529C122.129 22.768 122.045 22.8328 122.007 22.8885C121.854 23.0958 121.722 23.3311 121.569 23.5384C121.494 23.6498 121.478 23.7336 121.502 23.858C121.689 24.822 121.88 25.8016 122.067 26.7656M132.97 24.6632C133.211 25.9071 133.453 27.151 133.695 28.3949C133.719 28.5192 133.703 28.603 133.628 28.7145C132.432 30.4475 131.233 32.165 130.036 33.8981C129.971 33.9754 129.874 34.0587 129.765 34.0799C127.759 34.4696 125.754 34.8594 123.748 35.2491C123.654 35.2673 123.521 35.2448 123.447 35.1947C121.704 34.0327 119.943 32.8581 118.197 31.6806C118.123 31.6305 118.052 31.5151 118.034 31.4218C117.551 28.9341 117.07 26.4618 116.587 23.974C116.569 23.8807 116.591 23.7473 116.641 23.673C117.816 21.9119 119.009 20.1633 120.187 18.4177C120.274 18.2877 120.362 18.2385 120.502 18.2113C122.476 17.8276 124.466 17.4408 126.441 17.0571C126.566 17.0329 126.665 17.0459 126.776 17.1211C128.522 18.2986 130.286 19.4887 132.032 20.6663C132.143 20.7415 132.192 20.8287 132.216 20.9531C132.458 22.197 132.7 23.4409 132.942 24.6848" fill="black"/>
<path d="M139.506 23.4256C139.648 24.1563 139.79 24.8871 139.932 25.6179C139.992 25.9289 139.981 26.2861 140.138 26.5137C140.298 26.7569 140.645 26.883 140.905 27.0584C140.977 27.093 141.063 27.1245 141.141 27.1094C142.603 26.8254 144.064 26.5414 145.51 26.2604C145.588 26.2453 145.657 26.1835 145.71 26.1248C145.876 25.8989 146.023 25.6606 146.17 25.4222C146.208 25.3665 146.221 25.2671 146.209 25.2049C145.822 23.2147 145.438 21.24 145.052 19.2498C145.036 19.172 144.975 19.1034 144.916 19.0502C144.709 18.8969 144.473 18.7651 144.266 18.6118C144.155 18.5366 144.071 18.5206 143.946 18.5448C142.594 18.8077 141.241 19.0705 139.888 19.3334C139.593 19.3908 139.387 19.4953 139.246 19.7648C139.18 19.9228 139.043 20.0463 138.973 20.1889C138.926 20.2787 138.898 20.381 138.916 20.4743C139.106 21.4539 139.3 22.449 139.49 23.4286M150.39 21.3106C150.631 22.5545 150.873 23.7984 151.112 25.0267C151.13 25.12 151.107 25.2535 151.057 25.3277C149.864 27.0764 148.668 28.8094 147.472 30.5425C147.425 30.6323 147.294 30.7061 147.201 30.7243C145.195 31.114 143.205 31.5008 141.199 31.8905C141.106 31.9086 140.972 31.8862 140.898 31.8361C139.14 30.6771 137.397 29.515 135.639 28.3561C135.546 28.2934 135.484 28.2247 135.46 28.1003C134.977 25.6126 134.49 23.1092 134.007 20.6214C133.989 20.5282 134.014 20.4102 134.064 20.336C135.239 18.5748 136.429 16.8107 137.622 15.0621C137.697 14.9507 137.782 14.8859 137.921 14.8587C139.912 14.472 141.886 14.0882 143.861 13.7045C144.001 13.6773 144.1 13.6903 144.215 13.781C145.96 14.9586 147.725 16.1487 149.47 17.3262C149.582 17.4014 149.628 17.4731 149.652 17.5975C149.894 18.8414 150.135 20.0853 150.374 21.3136" fill="black"/>
<path d="M82.5936 34.3875C82.1525 32.1174 81.7113 29.8473 81.2672 27.5617C81.237 27.4062 81.2655 27.3038 81.3532 27.1738C81.707 26.6694 82.0392 26.1369 82.4085 25.6295C82.4586 25.5552 82.5428 25.4904 82.6361 25.4723C85.6556 24.9017 88.6781 24.3467 91.7131 23.7731C91.8375 23.7489 91.9398 23.7774 92.0482 23.837C93.7938 25.0146 95.5394 26.1921 97.3005 27.3667C97.4119 27.4418 97.4612 27.5291 97.4853 27.6535C98.1682 31.1675 98.848 34.6659 99.5308 38.1799C99.555 38.3043 99.5265 38.4067 99.4669 38.5151C99.1161 39.035 98.7653 39.555 98.399 40.078C98.3489 40.1523 98.2491 40.2201 98.1558 40.2382C97.7049 40.3258 97.2696 40.4104 96.8187 40.498C96.7254 40.5161 96.6075 40.4907 96.5332 40.4405C95.9977 40.0928 95.4933 39.739 94.9577 39.3913C94.8463 39.3161 94.7971 39.2289 94.7729 39.1045C94.1958 36.1347 93.6188 33.1649 93.0417 30.1951C93.0115 30.0396 92.9437 29.9398 92.8137 29.8521C92.2967 29.5169 91.7738 29.1506 91.2568 28.8154C91.1856 28.7808 91.0832 28.7523 91.0055 28.7674C90.0725 28.9487 89.1396 29.13 88.2222 29.3082C88.1445 29.3234 88.0603 29.3881 88.0071 29.4469C87.6469 30.0009 87.2896 30.5706 86.9294 31.1246C86.8792 31.1989 86.8849 31.3108 86.9 31.3885C87.477 34.3583 88.0511 37.3126 88.6282 40.2824C88.6554 40.4223 88.6269 40.5247 88.5517 40.6361C88.1979 41.1405 87.8502 41.676 87.4964 42.1804C87.4463 42.2547 87.331 42.3255 87.2407 42.3592C86.8209 42.4408 86.4166 42.5193 85.9968 42.6009C85.8724 42.6251 85.7731 42.6121 85.6772 42.5339C85.1572 42.1832 84.6342 41.8168 84.1173 41.4816C84.0059 41.4065 83.9597 41.3348 83.9355 41.2104C83.4914 38.9247 83.0472 36.6391 82.6031 34.3534" fill="black"/>
<path d="M58.0533 35.2999C57.5557 35.3966 57.0892 35.4873 56.6383 35.5749C56.5606 35.59 56.4582 35.5615 56.387 35.5269C55.8484 35.1636 55.3129 34.8159 54.7714 34.437C54.6971 34.3869 54.6323 34.3027 54.6142 34.2094C54.5296 33.7741 54.445 33.3387 54.3634 32.9189C54.3483 32.8411 54.3613 32.7418 54.3989 32.6861C54.7591 32.132 55.135 31.5749 55.5138 31.0334C55.5514 30.9776 55.6386 30.9284 55.7008 30.9163C57.1779 30.6293 58.6706 30.3393 60.1477 30.0522C60.2099 30.0401 60.3093 30.0531 60.365 30.0907C60.9221 30.4665 61.4762 30.8268 62.0177 31.2056C62.092 31.2557 62.1287 31.3615 62.1593 31.4363C62.5672 33.5353 62.9751 35.6344 63.383 37.7335C63.8543 40.1591 64.3257 42.5847 64.797 45.0102C64.8212 45.1346 64.8082 45.234 64.733 45.3454C64.3823 45.8653 64.0315 46.3853 63.6652 46.9083C63.6151 46.9826 63.5153 47.0504 63.422 47.0685C62.9867 47.1531 62.5513 47.2377 62.1315 47.3193C62.0537 47.3344 61.9514 47.3059 61.8801 47.2713C61.3602 46.9205 60.8402 46.5698 60.3047 46.222C60.1777 46.1499 60.1255 46.0471 60.0983 45.9072C59.4275 42.4554 58.7568 39.0035 58.0891 35.5673L58.0407 35.3185L58.0533 35.2999Z" fill="black"/>
<path d="M61.1106 25.9602C61.3597 26.412 61.1554 26.8551 60.8051 27.2943C60.5329 27.6376 60.3165 28.0185 60.0474 28.3774C60.0098 28.4331 59.9256 28.4979 59.8478 28.513C59.4125 28.5976 58.9616 28.6852 58.5106 28.7728C58.4485 28.7849 58.3491 28.7719 58.2934 28.7344C57.7393 28.3741 57.1978 27.9953 56.6592 27.632C56.6035 27.5944 56.5388 27.5102 56.5236 27.4324C56.436 26.9815 56.3514 26.5461 56.2638 26.0952C56.2487 26.0175 56.2617 25.9181 56.3148 25.8594C56.6751 25.3053 57.0384 24.7668 57.4172 24.2253C57.4703 24.1665 57.5546 24.1017 57.6323 24.0866C58.0677 24.002 58.503 23.9174 58.9539 23.8298C59.0317 23.8147 59.131 23.8277 59.1898 23.8808C59.7438 24.2411 60.2854 24.6199 60.8239 24.9832C60.8796 25.0208 60.9288 25.108 60.9595 25.1828C61.0018 25.4004 61.0441 25.6181 61.1076 25.9447" fill="black"/>
<path d="M178.348 5.00222C178.366 5.09551 178.384 5.1888 178.402 5.28209C178.411 5.32874 178.519 5.38836 178.548 5.36676C178.756 5.27782 178.968 5.20442 179.155 5.0874C179.326 4.9734 179.315 4.74968 179.195 4.62787C179.053 4.47798 178.59 4.42264 178.375 4.56126C178.188 4.67828 178.352 4.85624 178.329 4.98969C178.329 4.98969 178.329 4.98969 178.332 5.00524M180.618 6.72317C180.354 6.77454 180.105 6.82288 179.856 6.87122C179.825 6.87726 179.764 6.80858 179.742 6.78051C179.625 6.59348 179.536 6.38487 179.4 6.18531C179.213 5.88296 178.909 5.81296 178.582 5.95717C178.551 5.96321 178.519 6.05002 178.528 6.09667C178.579 6.36099 178.634 6.64087 178.685 6.9052L178.724 7.10733L177.994 7.24933L177.404 4.21735C177.653 4.169 177.88 4.09259 178.114 4.04727C178.44 3.98382 178.767 3.92037 179.115 3.88499C179.525 3.83754 179.853 4.03193 180.004 4.38999C180.135 4.73553 180.037 5.06116 179.719 5.33279C179.688 5.33883 179.678 5.37295 179.638 5.41311C179.939 5.46757 180.08 5.69822 180.203 5.91634C180.336 6.18111 180.468 6.44588 180.603 6.72619" fill="black"/>
</g>
</svg>
