<svg width="172" height="62" viewBox="0 0 172 62" fill="none" xmlns="http://www.w3.org/2000/svg">
<path d="M59.3142 32.6678L63.691 31.8173C65.4671 31.4721 66.2865 30.523 65.929 28.6835C65.5716 26.844 64.4718 26.3501 62.6957 26.6952L58.3189 27.5457L59.3142 32.6678ZM53.7188 25.2141L63.5189 23.3097C66.7856 22.6749 69.2719 24.5451 69.805 27.2885C70.221 29.4293 69.6601 31.2004 67.8191 32.3975L67.8284 32.445C69.8934 32.5704 70.8213 34.3813 71.3025 36.1803C71.6036 37.3067 71.9879 39.4537 72.8987 40.3299L68.9026 41.1064C68.1891 40.0602 67.9105 38.2876 67.4208 36.8688C66.7656 35.0213 65.8728 34.3226 63.8589 34.7139L59.8627 35.4905L61.2432 42.5948L57.247 43.3713L53.7218 25.2299L53.7188 25.2141Z" fill="black"/>
<path d="M19.3551 58.4031C19.1053 58.896 18.7079 59.1378 18.2956 59.2179C16.9794 59.4737 15.9955 58.6445 15.7551 57.4076C15.5147 56.1707 16.0915 54.989 17.4236 54.7301C18.2957 54.5606 19.241 54.9365 19.5241 55.8853L18.6202 56.061C18.4167 55.6068 18.0216 55.4367 17.5776 55.523C16.7372 55.6863 16.5587 56.4616 16.7066 57.2227C16.8545 57.9839 17.3011 58.5883 18.1415 58.425C18.76 58.3048 19.0442 57.904 18.9777 57.308L18.0262 57.4929L17.8907 56.7952L19.6826 56.447L20.1325 58.7622L19.5299 58.8793L19.3392 58.4062L19.3551 58.4031Z" fill="black"/>
<path d="M1.5332 35.3712L15.5991 32.638L16.5051 37.3002L8.03698 38.9457L8.47763 41.2134L15.7405 39.8021L16.5818 44.1313L9.31887 45.5426L10.6624 52.4566L5.06456 53.5444L1.5332 35.3712Z" fill="black"/>
<path d="M27.8911 42.3778L25.17 37.0974L25.1224 37.1066L24.4499 43.0465L27.8911 42.3778ZM21.2116 31.5472L26.6825 30.4841L36.8266 47.3722L31.0226 48.5L29.7561 46.0473L23.9838 47.1689L23.6804 49.9268L18.0509 51.0207L21.2116 31.5472Z" fill="black"/>
<path d="M34.8477 28.8974L38.8438 28.1209L40.1997 35.0984L47.5577 33.6686L46.2019 26.6911L50.1981 25.9146L53.7294 44.0877L49.7333 44.8642L48.211 37.0304L40.853 38.4602L42.3752 46.294L38.379 47.0706L34.8477 28.8974Z" fill="black"/>
<path d="M72.1641 21.6464L84.7235 19.2059L85.0101 20.6807L74.1791 22.7853L75.4549 29.3505L85.5881 27.3814L85.8746 28.8562L75.7414 30.8252L77.1374 38.0089L88.0951 35.8796L88.3817 37.3543L75.6954 39.8195L72.1641 21.6464Z" fill="black"/>
<path d="M87.2266 18.7192L89.1612 18.3433L102.743 31.667L102.791 31.6578L99.8019 16.2756L101.546 15.9367L105.078 34.1098L103.143 34.4857L89.5608 21.162L89.5133 21.1713L92.5023 36.5534L90.7579 36.8924L87.2266 18.7192Z" fill="black"/>
<path d="M107.858 24.2716L109.599 33.2313L108.473 33.4501L104.941 15.277L106.067 15.0582L107.67 23.3043L119.278 21.0487L117.675 12.8026L118.801 12.5838L122.333 30.7569L121.207 30.9757L119.466 22.016L107.858 24.2716Z" fill="black"/>
<path d="M137.685 26.7699L137.873 27.7372L125.535 30.1346L122.004 11.9615L134.214 9.58873L134.402 10.5561L123.302 12.7131L124.716 19.9918L135.167 17.9612L135.355 18.9285L124.904 20.9592L126.457 28.9515L137.685 26.7699Z" fill="black"/>
<path d="M137.388 8.97235L136.262 9.19113L139.793 27.3643L140.919 27.1455L137.388 8.97235Z" fill="black"/>
<path d="M138.644 9.25486L138.545 8.74741L152.135 6.10659L152.234 6.61404L145.7 7.88361L149.133 25.5493L148.626 25.6479L145.193 7.98221L138.644 9.25486Z" fill="black"/>
<path d="M9.25742 56.4158L8.8791 59.5503L8.86325 59.5534L7.29105 56.7979L5.95898 57.0568L6.79098 61.3384L7.67902 61.1658L7.09663 58.1687L7.11248 58.1656L8.7415 60.9594L9.47096 60.8176L9.92902 57.5854L9.94488 57.5823L10.5334 60.6112L11.4056 60.4417L10.5736 56.1601L9.25742 56.4158Z" fill="black"/>
<path d="M13.2528 56.7419L14.0971 58.2071L12.987 58.4228L13.237 56.745L13.2528 56.7419ZM12.5706 55.7719L11.7851 60.3678L12.7366 60.183L12.8847 59.1668L14.4864 58.8555L14.9884 59.7454L15.9716 59.5543L13.538 55.5839L12.5706 55.7719Z" fill="black"/>
<path d="M21.913 55.0592L22.7572 56.5244L21.6472 56.7401L21.8971 55.0623L21.913 55.0592ZM21.2308 54.0892L20.4453 58.6851L21.3967 58.5002L21.5449 57.484L23.1465 57.1728L23.6486 58.0626L24.6318 57.8716L22.1981 53.9012L21.2308 54.0892Z" fill="black"/>
<path d="M24.0846 53.5345L24.2387 54.3274L26.3636 53.9145L24.5973 57.1047L24.7422 57.85L28.3577 57.1474L28.2037 56.3545L25.8408 56.8137L27.6071 53.6235L27.4623 52.8781L24.0846 53.5345Z" fill="black"/>
<path d="M29.0157 52.5763L28.0801 52.7581L28.9121 57.0397L29.8477 56.8579L29.0157 52.5763Z" fill="black"/>
<path d="M32.5852 51.8827L33.146 54.7689L33.1302 54.772L30.7774 52.234L29.8418 52.4158L30.6738 56.6975L31.5618 56.5249L31.0072 53.6705L31.023 53.6674L33.3538 56.1767L34.2894 55.9949L33.4574 51.7133L32.5852 51.8827Z" fill="black"/>
<path d="M34.2969 51.5501L35.1289 55.8318L38.3797 55.2001L38.2257 54.4072L35.9104 54.8571L35.707 53.8104L37.7844 53.4068L37.6427 52.6773L35.5653 53.081L35.3866 52.1612L37.6542 51.7206L37.5002 50.9277L34.2969 51.5501Z" fill="black"/>
<circle cx="162.432" cy="4.66239" r="3.69029" transform="rotate(-10.9965 162.432 4.66239)" stroke="black" stroke-width="0.5"/>
</svg>
