<svg width="114" height="54" viewBox="0 0 114 54" fill="none" xmlns="http://www.w3.org/2000/svg">
<g clip-path="url(#clip0_926_585)">
<path d="M15.7167 49.5632L6.70722 51.3139C6.69281 51.2715 6.67999 51.2267 6.66558 51.1842C6.81116 51.1292 6.9552 51.0663 7.10469 51.0208C7.7994 50.8076 8.214 50.3487 8.22356 49.6149C8.23089 49.0706 8.209 48.5135 8.10741 47.9801C7.04707 42.4493 5.97048 36.9195 4.88835 31.3929C4.79671 30.9214 4.64805 30.4527 4.46681 30.0067C4.13052 29.1755 3.66169 28.9109 2.76875 28.9611C2.63253 28.969 2.49521 28.9608 2.35905 28.9584C2.35531 28.918 2.34959 28.878 2.34585 28.8376L9.84549 27.3803C9.81143 27.7447 9.78018 28.1024 9.74651 28.4688C9.82533 28.4617 9.86842 28.4718 9.87959 28.4553C11.5412 26.2447 13.846 25.8627 16.3453 26.3435C19.2439 26.9009 21.0264 28.7937 21.9583 31.5263C22.6393 33.5283 22.91 35.5772 22.4409 37.6711C21.6367 41.2572 17.6929 43.9029 14.2869 43.1151C13.5938 42.9558 12.9417 42.6157 12.2508 42.3511C12.251 42.3839 12.2378 42.4749 12.254 42.5581C12.5502 44.0612 12.8389 45.5679 13.1569 47.0668C13.2564 47.5368 13.4146 48.0016 13.6073 48.4433C13.9526 49.2357 14.4459 49.4996 15.2998 49.4283C15.4333 49.4168 15.5675 49.4195 15.7025 49.4159C15.7077 49.4642 15.711 49.5129 15.7163 49.5612L15.7167 49.5632ZM10.8484 35.5995C10.8642 35.5964 10.8801 35.5933 10.8979 35.5899C11.2764 37.5376 11.6489 39.4865 12.0429 41.4292C12.0848 41.6451 12.2117 41.896 12.3792 42.028C13.2188 42.6873 14.1929 43.0018 15.2582 42.9922C16.5393 42.9818 17.5007 42.2788 17.8115 41.032C17.9852 40.3382 18.0732 39.5953 18.0494 38.8802C17.9573 36.0255 17.3708 33.2505 16.5647 30.5202C16.2678 29.5107 15.8752 28.5383 15.1965 27.712C14.3506 26.6817 13.2009 26.4157 11.9819 26.9569C11.1946 27.3073 10.5504 27.8438 10.0892 28.5605C9.92154 28.8193 9.80113 29.1943 9.84622 29.4899C10.1541 31.5294 10.5104 33.5637 10.8504 35.5991L10.8484 35.5995Z" fill="black"/>
<path d="M27.9376 23.8484L35.4055 22.3973C35.2301 25.1662 36.0181 27.793 36.4968 30.4574C36.8248 32.2833 37.2322 34.0939 37.6197 35.9082C37.6865 36.2201 37.8115 36.5249 37.9465 36.8173C38.5501 38.125 39.6386 38.5201 40.9385 37.8871C42.0748 37.3332 42.7893 36.4068 43.16 35.2141C43.218 35.026 43.2003 34.7971 43.1614 34.597C42.4771 31.0329 41.7844 27.4683 41.0882 23.9065C41.0454 23.6866 40.9686 23.4712 40.8906 23.2602C40.4646 22.1154 40.1171 21.8827 38.9174 21.9205C38.8295 21.9232 38.739 21.9017 38.6411 21.7891L46.1664 20.3268C45.885 21.9895 46.2837 23.5755 46.5782 25.1653C47.0612 27.7671 47.5758 30.3628 48.0925 32.9582C48.2111 33.5581 48.3603 34.1563 48.557 34.735C48.8964 35.73 49.3706 36.0224 50.4195 35.9707C50.5336 35.965 50.6467 35.9759 50.7607 35.9805C50.764 36.0189 50.7674 36.0573 50.7692 36.0981L43.3111 37.5474C43.3283 36.9477 43.345 36.3564 43.3631 35.7093C42.8808 36.317 42.5206 36.897 42.0415 37.352C40.4107 38.9067 37.0312 39.4298 34.9887 38.4634C33.6028 37.8074 32.8013 36.6348 32.3395 35.2214C32.1106 34.5195 31.9602 33.7879 31.8129 33.0619C31.396 30.9901 31.0126 28.9117 30.5897 26.841C30.4675 26.2438 30.3061 25.6459 30.0847 25.0782C29.733 24.1781 29.2957 23.9382 28.3235 23.9934C28.2016 24.0007 28.0801 23.9893 27.9578 23.9843C27.9513 23.9403 27.9448 23.8964 27.9403 23.852L27.9376 23.8484Z" fill="black"/>
<path d="M66.689 33.0025L57.7231 34.7447C57.7091 34.7043 57.6954 34.6658 57.6814 34.6254C57.8453 34.5586 58.006 34.4862 58.1733 34.4269C58.8389 34.1907 59.2175 33.7264 59.2218 33.0183C59.225 32.5056 59.2195 31.9803 59.1241 31.4786C58.2168 26.6933 57.2917 21.9113 56.3666 17.1294C56.1052 15.784 55.8359 14.4402 55.5507 13.0995C55.4712 12.7222 55.3477 12.3514 55.1984 11.9958C54.8307 11.1194 54.377 10.8477 53.4326 10.8873C53.3123 10.8922 53.1939 10.8864 53.0607 10.7724L60.5227 9.32242C60.2688 11.6028 60.8989 13.7874 61.3085 15.9902C62.1299 20.3975 63.0033 24.7967 63.8703 29.1951C64.0286 29.9992 64.2122 30.8066 64.476 31.5819C64.8473 32.6674 65.2636 32.9052 66.3952 32.8663C66.4914 32.8641 66.5887 32.8883 66.6852 32.8984C66.6858 32.9332 66.688 32.9657 66.6886 33.0005L66.689 33.0025Z" fill="black"/>
<path d="M76.6408 14.0022C78.0892 13.731 79.5454 13.6804 80.9355 14.2101C81.6241 14.4732 82.2773 14.9035 82.8555 15.371C83.3583 15.7791 83.5441 16.4175 83.4617 17.0833C83.3706 17.8103 82.75 18.2887 82.0268 18.2175C81.2996 18.147 80.7612 17.5669 80.8111 16.8498C80.8368 16.485 80.9496 16.1238 81.0339 15.764C81.1795 15.1271 81.0377 14.7146 80.4442 14.4434C78.9377 13.7594 77.4108 13.7847 75.9964 14.6435C74.6591 15.4544 74.6585 17.4409 75.9897 18.2597C76.6225 18.6487 77.3662 18.8887 78.0859 19.1004C79.54 19.5252 81.0299 19.8279 82.4719 20.2859C83.8609 20.7254 85.0268 21.5187 85.6871 22.8956C86.7861 25.1865 86.0974 27.7693 83.968 29.1598C81.5375 30.7466 78.9059 31.3731 76.0371 30.6413C75.1133 30.4054 74.2972 29.9513 73.6227 29.2742C73.1507 28.8025 72.86 28.238 72.9038 27.5427C72.9596 26.6765 73.5523 26.1501 74.3705 26.244C75.117 26.3293 75.6432 27.0269 75.5249 27.8148C75.4777 28.1324 75.3644 28.4382 75.2787 28.7488C75.0877 29.4481 75.2096 29.8007 75.8422 30.1671C76.8177 30.7322 77.8943 30.8232 78.9827 30.7207C80.138 30.6134 81.2311 30.3023 82.1262 29.4909C83.3098 28.4179 83.2686 26.5342 81.9566 25.6232C81.3859 25.2262 80.7062 24.945 80.0351 24.7505C78.6257 24.3438 77.1864 24.0477 75.7681 23.6695C74.8095 23.4136 73.9152 23.0014 73.1563 22.3449C70.9401 20.4314 71.0586 17.0732 73.4048 15.3383C74.3723 14.6239 75.4714 14.2274 76.6436 14.0057L76.6408 14.0022Z" fill="black"/>
<path d="M110.538 22.7465C110.429 22.924 110.355 23.1378 110.206 23.2696C108.61 24.6756 106.77 25.5947 104.675 25.9874C102.248 26.4424 99.8523 26.398 97.5543 25.397C94.8297 24.2115 93.3705 22.0564 92.954 19.162C92.3591 15.0315 94.6261 11.9364 98.109 10.252C100.184 9.24838 102.387 8.79767 104.691 9.18476C106.938 9.56243 108.493 10.8436 109.339 12.9677C109.392 13.0994 109.421 13.2397 109.477 13.4344C109.254 13.4902 109.062 13.5501 108.864 13.5886C105.269 14.287 101.675 14.9854 98.0781 15.6803C97.7947 15.7354 97.563 15.7701 97.5913 16.1697C97.7837 18.8321 98.5077 21.309 100.158 23.4517C101.244 24.863 102.632 25.7818 104.48 25.7187C105.112 25.6968 105.765 25.5452 106.362 25.3284C107.848 24.7847 109.183 23.9844 110.232 22.767C110.272 22.7201 110.323 22.6875 110.371 22.6474L110.541 22.7481L110.538 22.7465ZM104.773 14.1758C104.541 12.985 104.184 11.9071 103.542 10.9401C102.364 9.16609 100.246 8.99577 98.8283 10.5996C97.5744 12.0194 97.5074 13.7699 97.5466 15.58L104.773 14.1758Z" fill="black"/>
<path d="M58.436 39.7119L58.7768 39.6457L59.3762 42.7308L60.6899 42.4755L60.7538 42.8044L59.0974 43.1263L58.4336 39.7103L58.436 39.7119Z" fill="black"/>
<path d="M65.2184 37.8612L65.5604 37.949L65.2594 38.9184L65.0107 38.8659L65.2184 37.8612Z" fill="black"/>
<path d="M72.491 36.9806L74.7479 40.087L74.3793 40.1586L73.6241 39.1395L72.1519 39.4255L71.8372 40.6526L71.4567 40.7265L72.4058 36.9971L72.4891 36.981L72.491 36.9806ZM72.5884 37.7142L72.2441 39.0642L73.4111 38.8375L72.5884 37.7142Z" fill="black"/>
<path d="M82.2648 35.6758L82.0482 35.9791C81.8214 35.8278 81.5861 35.7275 81.3393 35.6747C81.0926 35.6219 80.8634 35.6171 80.6475 35.6591C80.38 35.7111 80.1371 35.8261 79.9211 36.0058C79.7052 36.1856 79.5512 36.3985 79.4624 36.6502C79.3735 36.9018 79.3523 37.1527 79.4009 37.4024C79.4494 37.652 79.5676 37.8902 79.7494 38.0954C79.9311 38.3007 80.1588 38.4456 80.4259 38.5294C80.6931 38.6132 80.9736 38.6286 81.2629 38.5724C81.6136 38.5043 81.8916 38.3474 82.0968 38.1019C82.302 37.8564 82.3946 37.5711 82.379 37.2472L81.2892 37.459L81.2253 37.1301L82.6975 36.844C82.7959 37.3718 82.721 37.8223 82.4724 38.1935C82.2237 38.5646 81.8376 38.8 81.3165 38.9013C80.6845 39.0241 80.1432 38.9052 79.6911 38.5468C79.3435 38.271 79.1281 37.9139 79.0438 37.48C78.981 37.157 79.0037 36.84 79.1119 36.5291C79.2201 36.2181 79.4016 35.9567 79.6546 35.7451C79.9075 35.5335 80.2131 35.3919 80.5697 35.3226C80.859 35.2664 81.1425 35.2647 81.4165 35.3205C81.6905 35.3762 81.9745 35.4937 82.2613 35.6786L82.2648 35.6758Z" fill="black"/>
<path d="M87.3613 34.091L89.319 33.7106L89.384 34.0454L87.7672 34.3596L87.9751 35.4296L89.5781 35.1181L89.6431 35.4529L88.0402 35.7644L88.3008 37.1058L89.9038 36.7944L89.9689 37.1292L88.0251 37.5069L87.3613 34.091Z" fill="black"/>
<path d="M94.7575 36.199L94.0938 32.7831L94.169 32.7684L96.9503 34.9442L96.4417 32.3268L96.7786 32.2613L97.4423 35.6773L97.3651 35.6923L94.6078 33.5447L95.1102 36.1305L94.7575 36.199Z" fill="black"/>
<path d="M105.465 31.2313L105.235 31.4898C105.049 31.3245 104.842 31.2125 104.615 31.1539C104.388 31.0952 104.148 31.0884 103.9 31.1365C103.627 31.1896 103.388 31.3039 103.181 31.4797C102.975 31.6556 102.829 31.8669 102.745 32.1115C102.661 32.3561 102.644 32.6185 102.697 32.8939C102.778 33.31 102.989 33.631 103.328 33.8529C103.667 34.0749 104.055 34.1455 104.491 34.0608C104.968 33.968 105.332 33.702 105.582 33.2647L105.891 33.4165C105.763 33.6655 105.584 33.8752 105.351 34.0437C105.119 34.2123 104.847 34.3268 104.532 34.388C103.933 34.5043 103.425 34.3974 103.001 34.0665C102.647 33.7859 102.423 33.4098 102.331 32.9342C102.234 32.4349 102.326 31.979 102.611 31.57C102.895 31.1611 103.302 30.9052 103.829 30.8028C104.148 30.7408 104.448 30.7484 104.73 30.8251C105.012 30.9019 105.256 31.0374 105.465 31.2333L105.465 31.2313Z" fill="black"/>
<path d="M110.428 29.6089L112.385 29.2285L112.45 29.5634L110.834 29.8776L111.042 30.9475L112.644 30.636L112.71 30.9709L111.107 31.2824L111.367 32.6238L112.97 32.3123L113.035 32.6472L111.092 33.0249L110.428 29.6089Z" fill="black"/>
</g>
<defs>
<clipPath id="clip0_926_585">
<rect width="108.123" height="33" fill="white" transform="translate(0.787109 20.9301) rotate(-10.9965)"/>
</clipPath>
</defs>
</svg>
