<svg width="160" height="53" viewBox="0 0 160 53" fill="none" xmlns="http://www.w3.org/2000/svg">
<path d="M49.8637 21.0312C50.3013 20.9461 50.7055 20.8676 51.1096 20.7891C53.3005 20.3633 55.4871 19.9153 57.6811 19.5208C59.199 19.249 60.7323 19.2056 62.2364 19.622C64.6735 20.2997 66.1778 21.8934 66.8408 24.2927C67.1799 25.5169 67.2728 26.7543 66.9363 27.9998C66.5441 29.45 65.6795 30.5234 64.3121 31.1825C63.9944 31.3339 63.6723 31.4775 63.3162 31.6393C65.7492 34.1719 68.1934 36.7169 70.678 39.306C70.5107 39.3385 70.3909 39.3618 70.271 39.3851C68.37 39.7545 66.4679 40.1183 64.5691 40.4989C64.296 40.552 64.1525 40.5133 63.9656 40.2806C62.2971 38.1548 60.6085 36.0444 58.9243 33.9274C58.5189 33.419 58.1113 32.9139 57.7058 32.4055C57.6796 32.4193 57.6533 32.4331 57.6249 32.4502L59.3814 41.4896L54.038 42.5279L49.8609 21.0317L49.8637 21.0312ZM56.6002 27.162L56.6029 27.1614C56.779 28.0673 56.95 28.9771 57.1399 29.8803C57.1594 29.9806 57.3156 30.1441 57.3769 30.1322C58.1981 29.9668 59.0418 29.8578 59.8219 29.5703C61.3949 28.9869 62.0459 27.365 61.4674 25.7129C60.9756 24.313 60.148 23.7014 58.6558 23.7629C57.8838 23.7943 57.1182 23.9778 56.3481 24.0783C56.0828 24.1125 56.0204 24.2229 56.073 24.4788C56.258 25.3714 56.4263 26.2672 56.6007 27.1648L56.6002 27.162Z" fill="black"/>
<path d="M23.6805 26.1338L29.0712 25.0862C29.0979 25.1939 29.1302 25.3004 29.1519 25.4119C29.9246 29.4329 30.6721 33.4588 31.4838 37.4722C31.6611 38.3547 31.9983 39.2264 32.3881 40.0416C33.2448 41.8305 34.884 41.9748 36.3668 41.5074C37.9695 41.0021 38.5392 39.7662 38.4706 38.0584C38.4332 37.1516 38.289 36.2453 38.1212 35.3523C37.3948 31.5248 36.6405 27.7027 35.8941 23.8761C35.8898 23.8538 35.8966 23.8294 35.8974 23.7743L41.277 22.7289C41.2962 22.7975 41.3253 22.8728 41.3399 22.9481C42.2411 27.6008 43.159 32.2502 44.0268 36.9093C44.3324 38.5566 44.1926 40.1892 43.4774 41.7484C42.7115 43.4188 41.4265 44.5767 39.7852 45.3296C37.3499 46.4478 34.7985 46.9234 32.1403 46.3436C29.5428 45.7781 27.8113 44.1765 26.8662 41.7394C26.6295 41.1317 26.4453 40.4964 26.318 39.8558C25.4201 35.3095 24.5451 30.7617 23.6611 26.2127C23.6589 26.2016 23.6651 26.1888 23.6777 26.1343L23.6805 26.1338Z" fill="black"/>
<path d="M115.855 30.2873C115.739 30.3157 115.662 30.3392 115.581 30.3549C113.901 30.6815 112.218 30.9997 110.541 31.3431C110.251 31.3994 110.103 31.324 109.983 31.0783C109.596 30.2915 109.19 29.5141 108.814 28.7224C108.706 28.4974 108.603 28.4451 108.358 28.4927C105.809 28.9967 103.259 29.4923 100.706 29.9767C100.391 30.0379 100.222 30.1027 100.209 30.4841C100.182 31.3109 100.076 32.1356 100.017 32.9656C99.996 33.2879 99.8543 33.4225 99.5271 33.4803C97.9239 33.7745 96.3256 34.0937 94.7257 34.4046C94.6002 34.429 94.4748 34.4534 94.302 34.487C94.4165 33.7068 94.528 32.9707 94.6334 32.2328C95.4339 26.5871 96.2344 20.9414 97.0349 15.2956C97.1971 14.1504 97.3648 13.0042 97.5214 11.8601C97.551 11.6403 97.6191 11.5143 97.8728 11.465C99.8573 11.0938 101.839 10.7087 103.821 10.3091C104.13 10.249 104.279 10.3272 104.431 10.5926C106.396 14.0059 108.374 17.4109 110.347 20.8197C112.045 23.7527 113.745 26.6822 115.446 29.6146C115.572 29.8331 115.707 30.0499 115.851 30.2823L115.855 30.2873ZM101.84 15.3743C101.802 15.3701 101.76 15.3638 101.722 15.3597C101.341 18.8208 101.058 22.292 100.721 25.7796L106.63 24.6313C105.027 21.5296 103.433 18.4519 101.84 15.3743Z" fill="black"/>
<path d="M12.1198 34.5268C12.0325 34.3008 11.963 34.0771 11.8617 33.8683C11.2389 32.569 9.87282 32.0737 8.45618 32.6729C8.06602 32.8384 7.69372 33.0959 7.38252 33.3849C6.61352 34.0868 6.64505 35.8568 7.96888 36.3429C8.61357 36.5792 9.30055 36.7205 9.97978 36.8518C11.5152 37.1464 13.0705 37.3504 14.5951 37.6934C16.059 38.0222 17.3112 38.7652 18.168 40.0335C19.8728 42.5543 19.8421 46.7285 16.6523 49.084C15.0587 50.2614 13.2502 50.824 11.2995 51.0121C9.97347 51.1396 8.68668 51.0079 7.45545 50.4921C5.73306 49.771 4.64873 48.4631 4.00987 46.7533C3.91274 46.4916 3.82567 46.2222 3.72296 45.9615C3.63998 45.7578 3.6945 45.6662 3.91749 45.6229C5.40145 45.3403 6.88604 45.0461 8.37163 44.7718C8.46918 44.7529 8.66862 44.8414 8.69269 44.9206C9.02966 46.0295 10.1622 46.6773 11.354 46.5585C12.2934 46.4656 13.1823 46.2321 13.7958 45.4592C14.5001 44.5731 14.2858 43.4259 13.3386 42.8087C12.6999 42.3948 11.9712 42.2471 11.2402 42.1173C10.024 41.9024 8.7952 41.7564 7.58306 41.5176C6.13339 41.2323 4.76674 40.7342 3.69113 39.6647C2.93122 38.9099 2.46848 37.9874 2.1867 36.969C1.87327 35.8323 1.83555 34.6855 2.13587 33.5366C2.60071 31.731 3.71556 30.4123 5.34477 29.5374C7.42695 28.4183 9.6676 28.0552 11.9949 28.4361C14.5371 28.8504 16.0241 30.4445 16.7473 32.8263C16.7692 32.8944 16.7822 32.9613 16.8013 33.0299C16.9601 33.6238 16.9607 33.6266 16.3363 33.748C15.0039 34.0069 13.6705 34.2602 12.3348 34.5168C12.2679 34.5298 12.1978 34.5261 12.1203 34.5296L12.1198 34.5268Z" fill="black"/>
<path d="M133.431 11.0641C131.031 9.30014 127.889 9.72846 125.957 11.2493C124.394 12.4787 123.735 14.1457 123.736 16.0893C123.738 17.7087 124.162 19.2174 125.113 20.5396C126.265 22.138 127.862 23.0021 129.846 22.9551C131.876 22.9077 133.67 22.2554 134.873 20.4827C134.938 20.3862 135 20.2846 135.061 20.183C135.116 20.0942 135.165 20.0037 135.239 19.8794C135.414 20.0045 135.567 20.1223 135.729 20.2296C136.891 21.0105 138.047 21.7954 139.217 22.5603C139.422 22.6967 139.423 22.7864 139.293 22.9705C137.742 25.1667 135.658 26.6071 133.059 27.3263C131.06 27.8795 129.039 28.0901 127.01 27.6224C123.281 26.7589 120.625 24.5792 119.162 21.0539C117.969 18.1789 117.81 15.2304 118.917 12.2934C119.984 9.46246 121.963 7.41171 124.756 6.19795C127.157 5.15579 129.668 4.80088 132.263 5.29176C133.593 5.54518 134.84 6.03481 135.99 6.74556C136.155 6.8467 136.324 6.94396 136.156 7.18195C135.249 8.46895 134.348 9.75766 133.433 11.0636L133.431 11.0641Z" fill="black"/>
<path d="M142.915 3.45321C143.369 3.36492 143.785 3.28422 144.203 3.20297C147.656 2.53189 151.113 1.86304 154.565 1.1836C154.889 1.12077 155.016 1.16824 155.077 1.51217C155.28 2.68774 155.519 3.85906 155.744 5.0303C155.757 5.09719 155.761 5.16571 155.771 5.25932L149.092 6.55708L149.946 10.95C150.065 10.9356 150.167 10.9272 150.268 10.9077C152.286 10.5156 154.3 10.1184 156.317 9.72349C156.479 9.69207 156.644 9.61947 156.692 9.87924C156.938 11.1764 157.196 12.4743 157.455 13.8094L150.752 15.1121C150.789 15.3768 150.811 15.6097 150.855 15.8355C151.083 16.9945 151.325 18.1535 151.548 19.3136C151.596 19.5617 151.694 19.6034 151.93 19.5546C153.968 19.1442 156.008 18.7449 158.047 18.3401C158.208 18.3087 158.343 18.271 158.388 18.5024C158.645 19.8581 158.914 21.2117 159.182 22.5886L147.096 24.9372L142.921 3.45212L142.915 3.45321Z" fill="black"/>
<path d="M82.9994 36.6745L77.6699 37.7101L73.4961 16.2307L85.5264 13.893L86.3312 18.035C86.2337 18.054 86.1333 18.0735 86.0358 18.0924C83.9954 18.4889 81.9551 18.8854 79.9159 19.273C79.7459 19.306 79.6248 19.3382 79.6676 19.5584C79.9408 20.9343 80.2022 22.3095 80.4768 23.7227L87.1832 22.4195L87.993 26.5867C87.8369 26.617 87.6808 26.6473 87.5219 26.6782C85.5635 27.0645 83.6089 27.4559 81.6472 27.8255C81.3545 27.8824 81.3161 27.9824 81.3693 28.2411C81.909 30.9739 82.4398 33.7055 82.9739 36.4394C82.9869 36.5063 82.9888 36.5754 82.9988 36.6718L82.9994 36.6745Z" fill="black"/>
</svg>
